Coordinates
version=1
nRows=17
nColumns=34
inDegrees=yes

Units are S.I. units (second, meters, Newtons, ...)
If the header above contains a line with 'inDegrees', this indicates whether rotational values are in degrees (yes) or radians (no).

endheader
time	pelvis_tilt	pelvis_list	pelvis_rotation	pelvis_tx	pelvis_ty	pelvis_tz	hip_flexion_r	hip_adduction_r	hip_rotation_r	knee_angle_r	ankle_angle_r	subtalar_angle_r	mtp_angle_r	hip_flexion_l	hip_adduction_l	hip_rotation_l	knee_angle_l	ankle_angle_l	subtalar_angle_l	mtp_angle_l	lumbar_extension	lumbar_bending	lumbar_rotation	arm_flex_r	arm_add_r	arm_rot_r	elbow_flex_r	pro_sup_r	arm_flex_l	arm_add_l	arm_rot_l	elbow_flex_l	pro_sup_l
      3.43333330	    -37.76710022	    -49.60732546	    -62.79707181	      0.08040915	      0.61493096	     -0.04162177	      3.10730908	      1.64382031	    -23.12979279	      9.81620579	     16.10768641	     12.42142282	      0.00000000	      7.14742957	     -2.74491335	    -20.16605808	      0.00000000	     37.47166369	     28.24556051	      0.00000000	     -4.20193773	      4.81491202	     -3.43007953	     -0.51411878	     -7.23744297	     12.99621792	     21.87641037	    119.74817918	      2.34358768	     -4.97034051	     13.16457630	     27.47777911	    119.74817918
      3.45000000	    -37.81045002	    -49.57010683	    -62.78485892	      0.08078186	      0.61444577	     -0.04221022	      3.14199736	      1.60807078	    -23.17330922	      9.77106970	     16.12956562	     12.39925520	      0.00000000	      7.18976971	     -2.69482743	    -20.16440226	      0.00000000	     37.43315707	     28.26004543	      0.00000000	     -4.33784119	      4.95901112	     -3.32276025	     -0.63031972	     -6.54163166	     13.18032133	     21.92140841	    119.74817918	      2.16318005	     -4.44037933	     13.30770764	     27.48750423	    119.74817918
      3.46666670	    -38.31501955	    -49.27388016	    -63.36935932	      0.08180714	      0.61415361	     -0.04219419	      3.51082973	      1.70151834	    -23.51453991	      9.67226509	     15.93902283	     12.95234437	      0.00000000	      7.56758014	     -2.83711580	    -20.61538774	      0.00000000	     37.31865920	     28.58320903	      0.00000000	     -3.89421158	      5.30720568	     -2.68267393	     -0.48796105	     -6.92931300	     17.93487479	     20.90616954	    119.74817918	      2.41236464	     -4.38905721	     15.90633621	     26.39549724	    119.74817918
      3.48333330	    -38.39077599	    -49.22874554	    -63.45219890	      0.08341225	      0.61398371	     -0.04218885	      3.44069223	      1.68236072	    -23.56263380	      9.52395282	     15.89417273	     12.98279059	      0.00000000	      7.54522730	     -2.78208229	    -20.61333564	      0.00000000	     37.17147235	     28.57215693	      0.00000000	     -3.89266526	      5.45922950	     -2.46931431	     -0.62521063	     -7.12671831	     17.94388411	     20.72671962	    119.74817918	      2.03156363	     -4.45338050	     15.92184401	     26.33747302	    119.74817918
      3.50000000	    -38.52177093	    -49.16426295	    -63.66147298	      0.08532241	      0.61406293	     -0.04194818	      3.37940840	      1.70216553	    -23.55191501	      9.36042734	     15.72648482	     13.09193657	      0.00000000	      7.52017164	     -2.77261710	    -20.63392963	      0.00000000	     37.01408596	     28.50561749	      0.00000000	     -3.83863475	      5.64579491	     -2.19201909	     -0.79176510	     -7.67081440	     17.92230319	     20.48868846	    119.74817918	      1.52861951	     -4.82527796	     15.95793324	     26.38457427	    119.74817918
      3.51666670	    -39.05199682	    -49.05112216	    -64.35884399	      0.08635268	      0.61479259	     -0.04122108	      3.43886061	      2.05201813	    -23.22023935	      9.04495439	     15.36698275	     13.38586962	      0.00000000	      7.66224730	     -3.07440265	    -20.84406212	      0.00000000	     36.96014833	     28.05369302	      0.00000000	     -3.62164016	      5.95032335	     -1.81453138	     -0.95546422	     -8.42605132	     18.06632541	     20.38633352	    119.74817918	      0.67281956	     -5.76530256	     16.37805394	     27.54218930	    119.74817918
      3.53333330	    -39.08861565	    -49.05840444	    -64.45336485	      0.08767234	      0.61525466	     -0.04064278	      3.42555582	      2.04141029	    -23.17477570	      9.22579400	     15.36859512	     13.24879634	      0.00000000	      7.53646991	     -3.11366281	    -20.71596272	      0.00000000	     36.89229185	     28.07702569	      0.00000000	     -3.55471723	      5.98980334	     -1.75274221	     -1.17957145	     -9.25390553	     18.02548115	     20.24571692	    119.74817918	      0.08718199	     -6.56442607	     16.42790628	     27.52332087	    119.74817918
      3.55000000	    -39.15577790	    -48.89420879	    -64.44903779	      0.08816461	      0.61599977	     -0.03953265	      3.63945901	      2.05512659	    -22.74561199	      9.44685473	     15.50954206	     12.56693857	      0.00000000	      7.66205976	     -3.11044364	    -20.58192528	      0.00000000	     36.97223936	     27.72541059	      0.00000000	     -3.22926751	      5.90420867	     -2.01522579	     -1.58787714	    -10.27570162	     18.33729810	     20.94113930	    119.74817918	     -1.18967907	     -8.17358677	     17.42382506	     29.50961200	    119.74817918
      3.56666670	    -38.95315382	    -48.80669344	    -64.11327138	      0.08874531	      0.61679992	     -0.03871679	      3.64857284	      1.96917818	    -22.35522649	      9.54725394	     15.48444020	     11.76672476	      0.00000000	      7.64670143	     -2.97571217	    -20.21904435	      0.00000000	     36.81768698	     27.53569653	      0.00000000	     -2.93693141	      5.63986265	     -2.36039181	     -2.04965106	    -11.17220453	     18.64819843	     21.35283770	    119.74817918	     -2.14334914	     -9.66134288	     18.30266714	     30.57690345	    119.74817918
      3.58333330	    -38.87065342	    -48.90560252	    -64.12505632	      0.08918549	      0.61822830	     -0.03801502	      3.56981227	      2.00076846	    -22.25187348	      9.77986074	     15.43547680	     11.63625322	      0.00000000	      7.45009501	     -3.05430900	    -20.12416220	      0.00000000	     36.75274876	     27.50282913	      0.00000000	     -2.76673804	      5.54688712	     -2.41488988	     -2.40851796	    -11.89254067	     18.61789380	     21.26604768	    119.74817918	     -2.72761264	    -10.67100478	     18.32726377	     30.41678820	    119.74817918
      3.60000000	    -38.49958756	    -48.83845688	    -63.63559633	      0.08999662	      0.61925622	     -0.03692715	      3.39062548	      1.87694213	    -21.59966421	      9.70085865	     15.50698482	     10.60224852	      0.00000000	      7.34070427	     -2.81693712	    -19.68765510	      0.00000000	     36.74368059	     27.19602852	      0.00000000	     -2.51103160	      5.16555399	     -2.89965230	     -3.11180049	    -12.83425559	     18.85949914	     22.52082706	    119.74817918	     -3.92067527	    -12.39153546	     19.24564467	     32.19313582	    119.74817918
      3.61666670	    -38.42472151	    -48.90554170	    -63.68443933	      0.09135800	      0.62076122	     -0.03560304	      3.20307205	      1.90619951	    -21.55123355	      9.80347027	     15.50787540	     10.43704634	      0.00000000	      7.08869479	     -2.88029706	    -19.68107038	      0.00000000	     36.70366560	     27.08152901	      0.00000000	     -2.25956294	      5.11111821	     -2.98062260	     -3.44775592	    -13.58177137	     18.75916708	     22.41179256	    119.74817918	     -4.50162770	    -13.25234904	     19.20194537	     31.94649985	    119.74817918
      3.63333330	    -38.26885829	    -49.10014243	    -63.49998188	      0.09330783	      0.62242328	     -0.03394100	      2.44210065	      2.28663354	    -19.62922275	      8.96550356	     14.77368130	      7.91859900	      0.00000000	      6.66619356	     -2.92200364	    -18.63598015	      0.00000000	     36.65858860	     25.76923422	      0.00000000	     -2.22069627	      5.05227045	     -3.30629089	     -3.94308426	    -14.32659694	     17.67693917	     23.37444132	    119.74817918	     -5.42207008	    -14.32633168	     18.78197077	     32.88430904	    119.74817918
      3.65000000	    -38.23366841	    -49.10554927	    -63.58411314	      0.09585763	      0.62412549	     -0.03189809	      2.19224659	      2.31604154	    -19.62396551	      8.97045470	     14.81272633	      7.87203074	      0.00000000	      6.39256450	     -2.96457604	    -18.64347001	      0.00000000	     36.60320993	     25.68879689	      0.00000000	     -1.84857291	      5.01650384	     -3.31268507	     -4.13238833	    -14.95858347	     17.55145254	     23.32457924	    119.74817918	     -5.80789175	    -15.01180300	     18.62013043	     32.62204034	    119.74808942
      3.66666670	    -38.18295832	    -49.12080739	    -63.68616566	      0.09917449	      0.62589003	     -0.02969932	      1.81612241	      2.34361098	    -19.56054910	      8.84276817	     14.87343285	      7.84904667	      0.00000000	      6.04634219	     -2.97797733	    -18.63979476	      0.00000000	     36.59210204	     25.55746565	      0.00000000	     -1.45981327	      5.01062780	     -3.31934231	     -4.22192982	    -15.61754507	     17.36036782	     23.38416170	    119.74817918	     -6.13716484	    -15.51678751	     18.35182825	     32.37699959	    119.73374624
      3.68333330	    -38.08837062	    -49.46646556	    -63.68716073	      0.10292351	      0.62778430	     -0.02757990	      0.88861914	      2.62001741	    -18.80049202	      8.26067683	     14.48941577	      7.16910685	      0.00000000	      5.34369744	     -3.10785612	    -18.02742426	      0.00000000	     36.59584781	     24.67750089	      0.00000000	     -1.57265274	      5.11608049	     -3.35497863	     -4.43926765	    -16.12790295	     15.30622175	     24.30793223	    119.74817918	     -6.50611985	    -15.34465993	     14.96869457	     32.32056363	    119.74817918
      3.70000000	    -38.12541349	    -49.40145403	    -63.74465099	      0.10646219	      0.62916321	     -0.02512483	      0.69181397	      2.59522499	    -18.82575209	      8.31435168	     14.50895127	      7.13808265	      0.00000000	      5.08647379	     -3.11857290	    -17.99365782	      0.00000000	     36.57098483	     24.68188637	      0.00000000	     -1.25194872	      5.06927165	     -3.31863122	     -4.27818093	    -16.61370386	     15.19177070	     24.26261329	    119.74817918	     -6.42131259	    -15.77622754	     14.82394433	     32.21532613	    119.73937751
